<?xml version="1.0" encoding="UTF-8" standalone="no"?>
<!DOCTYPE svg PUBLIC "-//W3C//DTD SVG 1.1//EN" "http://www.w3.org/Graphics/SVG/1.1/DTD/svg11.dtd">
<svg width="100%" height="100%" viewBox="0 0 50 50" version="1.1" xmlns="http://www.w3.org/2000/svg" xmlns:xlink="http://www.w3.org/1999/xlink" xml:space="preserve" xmlns:serif="http://www.serif.com/" style="fill-rule:evenodd;clip-rule:evenodd;stroke-linecap:round;stroke-linejoin:round;stroke-miterlimit:1.5;">
    <g transform="matrix(0.710416,0,0,1.27585,10.8347,15.0752)">
        <g transform="matrix(1.57143,0,0,0.874998,-16.497,-10.862)">
            <path d="M6,28C6,28 16.117,16.798 28,28" style="fill:none;stroke:rgb(212,54,73);stroke-width:2.49px;"/>
        </g>
        <g transform="matrix(1.57143,0,0,0.874998,-16.497,-10.862)">
            <path d="M25,25.511C25,25.511 24.704,20.058 30,19C33.394,18.322 32.665,7.953 29,8C25.213,8.048 23.704,9.221 23.187,5C22.805,1.882 30.94,0.657 33.792,3C36.263,5.03 43.759,21.074 39,35C38.684,35.926 36.175,35.616 36,34.896C36,34.896 26.658,43.564 9,39" style="fill:none;stroke:rgb(212,54,73);stroke-width:2.49px;"/>
        </g>
    </g>
</svg>
