<?xml version="1.0" encoding="UTF-8" standalone="no"?>
<!DOCTYPE svg PUBLIC "-//W3C//DTD SVG 1.1//EN" "http://www.w3.org/Graphics/SVG/1.1/DTD/svg11.dtd">
<svg width="100%" height="100%" viewBox="0 0 50 50" version="1.1" xmlns="http://www.w3.org/2000/svg" xmlns:xlink="http://www.w3.org/1999/xlink" xml:space="preserve" xmlns:serif="http://www.serif.com/" style="fill-rule:evenodd;clip-rule:evenodd;stroke-linejoin:round;stroke-miterlimit:2;">
    <g transform="matrix(1,0,0,1,4.77083,1.27083)">
        <path d="M26.458,9L26.458,4C26.458,3.195 25.805,2.542 25,2.542C24.195,2.542 23.542,3.195 23.542,4L23.542,9C23.542,9.805 24.195,10.458 25,10.458C25.805,10.458 26.458,9.805 26.458,9Z" style="fill:rgb(212,54,73);"/>
    </g>
    <g transform="matrix(1,0,0,1,4.77083,2.27083)">
        <circle cx="25" cy="25" r="2" style="fill:rgb(212,54,73);"/>
    </g>
    <g transform="matrix(1,0,0,1,4.77083,2.27083)">
        <path d="M25,21.542C23.091,21.542 21.542,23.091 21.542,25C21.542,26.909 23.091,28.458 25,28.458C26.909,28.458 28.458,26.909 28.458,25C28.458,23.091 26.909,21.542 25,21.542ZM25,24.458C25.299,24.458 25.542,24.701 25.542,25C25.542,25.299 25.299,25.542 25,25.542C24.701,25.542 24.458,25.299 24.458,25C24.458,24.701 24.701,24.458 25,24.458Z" style="fill:rgb(212,54,73);"/>
    </g>
    <g transform="matrix(1,0,0,1,4.77083,2.27083)">
        <path d="M26.213,25.809L32.213,16.809C32.66,16.139 32.479,15.233 31.809,14.787C31.139,14.34 30.233,14.521 29.787,15.191L23.787,24.191C23.34,24.861 23.521,25.767 24.191,26.213C24.861,26.66 25.767,26.479 26.213,25.809Z" style="fill:rgb(212,54,73);"/>
    </g>
    <g transform="matrix(0.833333,0,0,1,8.9375,1.27083)">
        <path d="M19,5.458L31,5.458C31.966,5.458 32.75,4.805 32.75,4C32.75,3.195 31.966,2.542 31,2.542L19,2.542C18.034,2.542 17.25,3.195 17.25,4C17.25,4.805 18.034,5.458 19,5.458Z" style="fill:rgb(212,54,73);"/>
    </g>
    <g transform="matrix(1,0,0,1,4.77083,2.27083)">
        <path d="M13.023,16C12.428,16 11.886,15.657 11.631,15.12C11.377,14.582 11.456,13.945 11.833,13.486C15.062,9.852 19.763,7.542 25,7.542C34.636,7.542 42.458,15.364 42.458,25C42.458,34.636 34.636,42.458 25,42.458C19.763,42.458 15.062,40.148 11.861,36.491C11.493,36.042 11.416,35.421 11.664,34.896C11.913,34.37 12.442,34.035 13.023,34.035C13.024,34 13.025,34 13.026,34C13.377,34 13.709,34.156 13.934,34.425C16.6,37.556 20.57,39.542 25,39.542C33.026,39.542 39.542,33.026 39.542,25C39.542,16.974 33.026,10.458 25,10.458C20.57,10.458 16.6,12.443 13.932,15.572C13.707,15.841 13.375,15.996 13.025,15.996C13.024,16 13.023,16 13.023,16Z" style="fill:rgb(212,54,73);"/>
    </g>
    <g transform="matrix(1.45455,0,0,1.14286,-0.138258,0.985119)">
        <path d="M13,16.724L2,16.724C1.447,16.724 0.997,17.296 0.997,18C0.997,18.704 1.447,19.276 2,19.276L13,19.276C13.553,19.276 14.003,18.704 14.003,18C14.003,17.296 13.553,16.724 13,16.724Z" style="fill:rgb(212,54,73);"/>
    </g>
    <g transform="matrix(1.14286,0,0,1.14286,1.74083,6.6994)">
        <path d="M13,16.724L2,16.724C1.296,16.724 0.724,17.296 0.724,18C0.724,18.704 1.296,19.276 2,19.276L13,19.276C13.704,19.276 14.276,18.704 14.276,18C14.276,17.296 13.704,16.724 13,16.724Z" style="fill:rgb(212,54,73);"/>
    </g>
    <g transform="matrix(0.636364,0,0,1.14286,10.4981,12.4137)">
        <path d="M13,16.724L2,16.724C0.735,16.724 -0.292,17.296 -0.292,18C-0.292,18.704 0.735,19.276 2,19.276L13,19.276C14.265,19.276 15.292,18.704 15.292,18C15.292,17.296 14.265,16.724 13,16.724Z" style="fill:rgb(212,54,73);"/>
    </g>
</svg>
